<?xml version="1.0" encoding="iso-8859-1"?>
<!-- Uploaded to: SVG Repo, www.svgrepo.com, Generator: SVG Repo Mixer Tools -->
<svg xmlns="http://www.w3.org/2000/svg" xmlns:xlink="http://www.w3.org/1999/xlink" version="1.1" id="Capa_1"  viewBox="0 0 504.372 504.372" xml:space="preserve" width="512" height="512">
<g>
	<polygon style="fill:#E95B2D;" points="471.965,280.797 450.784,252.188 471.965,223.579 401.809,223.579 380.627,252.188    401.809,280.797  "/>
	<rect x="112.76" y="180.616" style="fill:#FABA45;" width="48.388" height="143.143"/>
	<path style="fill:#0F2639;" d="M486.85,216.079h-88.82l-21.182,28.609h-26.957V16.316C358.207,15.447,366.614,15,375.093,15V0   c-55.14,0-107.501,17.448-151.423,50.46c-40.994,30.811-72.119,74.203-88.108,122.656H105.26v71.572H49.951l35.482-29.573   l-9.604-11.523l-58.308,48.597l58.308,48.596l9.604-11.523l-35.482-29.572h55.309v71.571h30.306   c16.01,48.435,47.144,91.819,88.136,122.634c43.931,33.023,96.28,50.479,151.392,50.479v-15c-8.478,0-16.886-0.447-25.202-1.318   v-83.888h-15v81.831c-5.043-0.856-10.046-1.873-15.003-3.05v-46.65h-15v42.565c-25.777-7.963-50.107-20.37-72.174-36.959   c-37.23-27.987-65.813-66.991-81.292-110.644h17.225v-71.571h166.243v124.337h15V259.688h26.957l21.182,28.608h88.82   l-26.734-36.108L486.85,216.079z M153.648,316.26H120.26V188.116h33.388V316.26z M168.648,244.688v-71.572h-17.233   c15.461-43.67,44.035-82.682,81.268-110.666c22.071-16.588,46.411-28.993,72.206-36.953V68.12h15V21.417   c4.957-1.176,9.96-2.191,15.003-3.046v226.317H168.648z M457.081,273.297h-51.492l-15.629-21.108l15.629-21.109h51.492   l-15.629,21.109L457.081,273.297z"/>
</g>















</svg>